/* XPM */
static char *_b4fca206a814c8b9e7441fa517c9c95JELxudva84XIUgjB[] = {
/* columns rows colors chars-per-pixel */
"40 40 94 2 ",
"   c #09211C",
".  c #0B2C23",
"X  c #0B2F29",
"o  c #0C342C",
"O  c #0D3A2F",
"+  c #0C3630",
"@  c #0F3E31",
"#  c #0E3E3C",
"$  c #103F31",
"%  c #103E3D",
"&  c #0F4135",
"*  c #0E423E",
"=  c #104132",
"-  c #114739",
";  c #124B3D",
":  c #133E40",
">  c #0F4240",
",  c #0F4941",
"<  c #144344",
"1  c #124E42",
"2  c #174648",
"3  c #135446",
"4  c #145847",
"5  c #13534B",
"6  c #19534E",
"7  c #145A4C",
"8  c #155653",
"9  c #1C5355",
"0  c #155D52",
"q  c #156255",
"w  c #15655A",
"e  c #176A5E",
"r  c #215E63",
"t  c #166666",
"y  c #186767",
"u  c #176E62",
"i  c #186E63",
"p  c #196768",
"a  c #176D69",
"s  c #1A6D6C",
"d  c #187165",
"f  c #19746B",
"g  c #1A7A6E",
"h  c #1B7674",
"j  c #1B7C72",
"k  c #1C7C7A",
"l  c #206B6E",
"z  c #266E73",
"x  c #296F77",
"c  c #237474",
"v  c #277678",
"b  c #29757A",
"n  c #227879",
"m  c #2B797D",
"M  c #1D827D",
"N  c #2C7B82",
"B  c #1D8483",
"V  c #1F8986",
"C  c #1F8B8B",
"Z  c #228686",
"A  c #2E8087",
"S  c #27878A",
"D  c #2F878E",
"F  c #238888",
"G  c #258889",
"H  c #208D8C",
"J  c #28898B",
"K  c #28898C",
"L  c #2C8B8F",
"P  c #2C8C8F",
"I  c #2E8A90",
"U  c #2A8F93",
"Y  c #2E8E93",
"T  c #308B92",
"R  c #308D93",
"E  c #318E94",
"W  c #358E97",
"Q  c #378F99",
"!  c #219292",
"~  c #219393",
"^  c #239394",
"/  c #2C9397",
"(  c #299497",
")  c #2D979C",
"_  c #349097",
"`  c #32939A",
"'  c #359098",
"]  c #34949B",
"[  c #33979E",
"{  c #37969F",
"}  c #38929B",
"|  c #349CA3",
" . c #379DA5",
".. c #3A9EA8",
/* pixels */
"= = = = $ @ @ @ @ @ @ $ = = $ = $ $ @ @ @ @ @ @ $ $ @ @ @ @ $ = = $ @ @ @ @ $ = ",
"= - ; 1 5 6 6 6 6 6 6 5 3 3 1 3 1 5 5 6 6 6 6 6 5 5 5 6 6 5 5 3 3 5 5 6 6 5 5 3 ",
"= ; 8 t s c m m m m c h f s f f f f c b m m m v c f c b b c f s s f c b b c s a ",
"= 1 t k G Y ' } } ' Y G B B B B B Z K E ' } ' R J S K E E L Z B B Z L E E P F B ",
"$ 5 s S / ` ' Q Q W I S B B B B B Z K E Q } Q T S Z K E E K Z B B Z K E ' ` ( ( ",
"@ 6 c Y ` D m b b x z p t t t t t p l z b b x z s p l z z l p t t p l z N T [ | ",
"@ 6 b _ Q m 9 < < 2 < < * * * * * > < 2 2 2 2 2 < < < 2 2 < * * * * % 2 r A { ..",
"@ 6 v E T z : . + * , , , , , , , , , , , , , , , ; * * * * * * * * O O 9 m ]  .",
"@ 5 c K S s # + 5 q w w w w w w w w w w w w w w w w q 0 0 0 0 q q q 3 * 8 n U ) ",
"= 5 f Z B y * * q d f f f f f f f f g g f f f f f f d d i u u d d d q 1 0 h H ^ ",
"= 3 s B B t * * w f f f g g g j j j j j j j j j j g g f f d d d f d q 3 8 h C ! ",
"= 3 f B B t * * q i d d d f g g g g g g g g g g g g g g f d d d d i 0 3 8 h C ! ",
"= 3 s B B t * * 0 i d d i i u u u u u u u u u u u u u u u d d d d i 0 3 8 h C ! ",
"= 3 s B B t * * q d f d e q 7 5 5 5 5 5 5 5 5 5 5 5 5 5 0 e d f f d q 3 8 h C ! ",
"= 3 f B B t * , w f g d w 5 # o o O + + + + + + + O o + , q f g g f q 3 0 h C ! ",
"= 3 s B B t * , w f g f w 1 o   . o O o o o o o o o . . * q f g g f w 3 0 h C ! ",
"= 3 f B B t * , w f g f u 5 o . @ - ; ; ; ; ; ; ; - @ @ 1 q f g g f w 3 0 h C ! ",
"= 3 f B B t * , w f j g u 5 O o - 3 3 3 3 4 4 4 4 3 ; - 3 w f g g f w 3 0 h C ! ",
"= 3 f B B t * , w f j g u 5 + O ; 3 4 4 4 0 q q q q 3 ; 3 w f g g f w 3 0 h C ! ",
"$ 3 f B B t * , w f j g u 5 + o ; 3 3 4 7 q e e e w 7 1 3 w f g g f w 3 0 h C ! ",
"$ 3 s B B t * , w f j g u 5 + o ; 3 3 3 7 w i i i e 0 1 3 w d g g f w 3 0 h C ! ",
"$ 1 s B B t * , w f j g u 5 + o ; 3 3 3 7 w i d d e 0 1 3 q d f g f w 3 0 h C ! ",
"= 3 s B B t * , w g j g u 5 O O ; 3 4 4 7 w i d d e 0 1 1 0 u f g f w 3 0 h C ! ",
"= 3 f B B t * , w g g f u 5 O O ; 3 7 0 q e i d d e 0 1 1 0 e d f d q 3 8 h C ! ",
"= 5 f B B t * , w f g f w 1 O o ; 4 q w e i i d d e 0 1 1 0 e d d i 0 3 8 h C ! ",
"= 5 s B B t * , w f f d w 1 o o - 3 0 w e e e e e w 7 1 1 0 e i i e 7 1 8 h C ! ",
"= 3 f B B t * * q d f d w 1 X . & 1 4 7 0 0 0 0 0 7 3 ; 1 0 e i e q 3 ; 8 h C ! ",
"= 3 s B B t * * 0 i d i w 1 o . O - ; ; 1 1 1 1 1 ; - - 1 0 e e q 7 1 ; 8 h C ! ",
"= 3 f B B t * # 7 e i i e 5 * # & - - - - ; - - ; ; - - 3 0 w w q 3 ; ; 8 j C ! ",
"= 3 f B B t # + 3 q e i e w 8 5 3 1 ; ; ; ; ; ; ; ; ; ; 3 7 q 0 7 3 ; ; 8 j C ! ",
"= 3 f B B t # o ; 7 q e u e e q 7 3 3 3 3 3 3 3 3 3 3 3 3 4 4 4 4 3 ; ; 8 h C ! ",
"$ 3 f B B t # o ; 3 q w w e w q 7 4 3 3 3 3 3 4 4 4 3 3 3 3 3 3 3 3 ; ; 8 h C ! ",
"$ 3 f B B t # o - 3 7 7 q q q 7 4 4 3 3 3 4 4 3 3 3 3 3 3 3 3 3 4 3 ; ; 8 h C ! ",
"$ 1 s B B t # o - 3 3 3 3 3 3 3 3 3 3 3 3 3 3 3 3 3 3 3 3 3 3 3 3 3 ; ; 8 h C ! ",
"= 3 s B B t # . @ ; ; ; ; ; ; ; ; ; ; ; ; ; ; ; ; ; ; ; ; ; ; ; ; ; - - 8 h H ! ",
"= 3 s B B t # . O - ; - - ; ; - - - - - ; ; ; ; ; ; ; - - - - - - - - - 0 h C ! ",
"= 1 i M B s 8 1 1 1 1 1 1 1 1 1 1 1 1 1 1 1 1 1 1 1 1 1 1 1 1 1 1 1 3 8 t j V H ",
"= 1 w j M k h p w 0 0 0 0 0 0 0 0 0 0 0 0 0 0 0 0 0 0 0 0 0 0 0 0 q u f j M M M ",
"= ; q f M B B M g i e e e e e e e e e e e e e e e e e e e e e e e i j B V M k j ",
"= ; 0 d k V H V k d i i i i i i i i i i i i i i i i i i i i i i i f M C H B j g "
};
