/* XPM */
static char *_c5ec8fd1e684034c66768d83c9561e5tXVgmXcZapm02kcg[] = {
/* columns rows colors chars-per-pixel */
"40 40 74 1 ",
"  c #0F3F30",
". c #103F31",
"X c #104132",
"o c #114738",
"O c #124B3C",
"+ c #124E43",
"@ c #135245",
"# c #155249",
"$ c #1A544F",
"% c #155B4C",
"& c #155E51",
"* c #166254",
"= c #166659",
"- c #176A5D",
"; c #186C5F",
": c #176661",
"> c #176C60",
", c #186E62",
"< c #176D69",
"1 c #196E6B",
"2 c #177164",
"3 c #187165",
"4 c #19756A",
"5 c #1A796D",
"6 c #1B7D74",
"7 c #1D7E7A",
"8 c #237373",
"9 c #287577",
"0 c #207F77",
"q c #2B777B",
"w c #2C787C",
"e c #1C8077",
"r c #1C827B",
"t c #21827C",
"y c #1E8683",
"u c #1F8C8A",
"i c #228785",
"p c #228A86",
"a c #218E8C",
"s c #2A8B8D",
"d c #20908F",
"f c #2E8D92",
"g c #318F94",
"h c #239293",
"j c #289191",
"k c #2F9092",
"l c #2A9395",
"z c #2C9294",
"x c #289497",
"c c #279698",
"v c #2B979B",
"b c #2E969A",
"n c #2F999E",
"m c #339096",
"M c #359199",
"N c #37929B",
"B c #309598",
"V c #30979C",
"C c #34969C",
"Z c #38939B",
"A c #38939C",
"S c #32999F",
"D c #319AA0",
"F c #379BA3",
"G c #369CA3",
"H c #379CA4",
"J c #3899A1",
"K c #399CA5",
"L c #3C9EA7",
"P c #3B9EA8",
"I c #3C9EA9",
"U c #3BA0AA",
"Y c #3DA0AB",
"T c #3FA0AC",
/* pixels */
"XXXX.      ...     .XXX            ....X",
"XoO+##$$$$$$$$$$$$##@@@#$$$$$$$$$$$$$##@",
"XO&:189999q9q99wq984111199wq999999q9981<",
"X+:7pfMZZMMMMMMZZMfpyypsgMZZMMMMMMAMMfpy",
".#1pbGPIKKKKKKKKKFSchhhvSKKKKKKKKKPIKDbx",
" #8fGUYPHDSDDSDDDnvchhhcnSDDDDDDDDKYYKGF",
" $9MPYIFbhjhhhhhhhjhhhhhjhhhhhhhjxSKIIIP",
" $9ZIPHVjauuuuuuuppuuuuuuuuuuuuuualSKPYY",
" $qAKHbjprrrrrrrrrrrrrrrrrrrr666rrslSKIY",
".$9MKSjpr6666655555556666666544456ralFPY",
" $wZJBpr655554444444445555555443446rsVLT",
" $qMJkt66555543333333455555555443346imKY",
" $9mCs05555554333,,,344555555543,,25tkFK",
" #8szp65555554433,,,33445555554,-=;4rsbS",
".#4pai655555555433,,,333455544,-**-4epjc",
"X@1yuy65555555554333,,,34443,--=*=-46uah",
"X@1yuy65555555555433,,,333,=****=-246uah",
"X@1yuy65555555555543,,,,3,-*%%%*=,356uah",
"X@1yuy65444555555543,,,,,,-=****=-,46uah",
"X@1yuy64334555555543,,,,,,,----=**-46yah",
"X@1yuy64333455555443,,,,,,33333-=*-46uah",
"X@1yuy64333345554433,,,,,3344443--,46uah",
"X@1yuy6433333454333,,,,,,33455543,356uah",
"X@1yuy644333334433,,,---,334455433356uah",
"X@1yuy65443333333,,,>=*=-,33445433356uah",
"X@1yuy655443,,,,,,,,-*%&=>,,34443,356uah",
"X@1yuy654433,,,,-====%%%*=-,3343--,46uah",
"X@1yuy64433,,,,-*%%%%%##%&=;,33-=*-46uah",
"X@1yuy64433,,,-=%%@@@@@@@%*-,3,-==-46uah",
"X@1yuy654433;-**%@@OOOOO@%*-,3,,,,356uah",
"X@1yuy655443-=%%#@OOoooO@%*-,,,334456uah",
"X@1yuy654433-*%@@+OoooO@%&==---,34556uah",
"X@1yuy644333-*%@OOoooO+%*==*&&*=,3456uah",
"X@1yuy6433,,-*%@OoooO@%*=-=%%%%*-2356uah",
"X@1yay643,-===*%@OOO@%*=;>=%@@%&-,356udh",
"X@1yuy643,=**=-=%@@@%*-;,;=%%@%&-,45euah",
"X+<ruyr64,=**-,;=*%%*=,33,-*%%%*-346ryua",
"X+-6yyyr5,-=-,332;-=--,343,-===-;36ryyyr",
"XO*4ruuy63,,,345443,,,,3444,,,,,,47uuye6",
"XO&36uau63,,34555543,,334543,,,,,4ruay65"
};
