/* XPM */
static char *_891b49dd9054dd6dafe856d480363b6H1Sli2kk06trU9Bi[] = {
/* columns rows colors chars-per-pixel */
"40 40 93 2 ",
"   c #071514",
".  c #081715",
"X  c #081A17",
"o  c #081C18",
"O  c #09221D",
"+  c #0A2620",
"@  c #0B2C23",
"#  c #0B3227",
"$  c #0C342A",
"%  c #0E3A2D",
"&  c #0F3F30",
"*  c #103F31",
"=  c #0F4235",
"-  c #0F453A",
";  c #104133",
":  c #114739",
">  c #124B3D",
",  c #134E41",
"<  c #135344",
"1  c #145847",
"2  c #155349",
"3  c #19534D",
"4  c #145A4C",
"5  c #155E52",
"6  c #1A5D55",
"7  c #1F5E5C",
"8  c #156154",
"9  c #186157",
"0  c #16665A",
"q  c #1A655B",
"w  c #176B5E",
"e  c #186C5F",
"r  c #176C60",
"t  c #186E62",
"y  c #176D69",
"u  c #1A6E6B",
"i  c #177164",
"p  c #187165",
"a  c #19756A",
"s  c #1A796D",
"d  c #1E7C74",
"f  c #1B7F78",
"g  c #216B67",
"h  c #226E6A",
"j  c #276F71",
"k  c #237373",
"l  c #287577",
"z  c #217D76",
"x  c #237F78",
"c  c #297B7A",
"v  c #1C807A",
"b  c #22817B",
"n  c #1E8685",
"m  c #1E8985",
"M  c #1F8F8C",
"N  c #278682",
"B  c #298684",
"V  c #218986",
"C  c #2B8887",
"Z  c #228A8A",
"A  c #2B8B8B",
"S  c #32868C",
"D  c #22908F",
"F  c #2D8D91",
"G  c #328E94",
"H  c #259394",
"J  c #299293",
"K  c #2B9598",
"L  c #289698",
"P  c #2C969A",
"I  c #2E979C",
"U  c #2F999E",
"Y  c #309092",
"T  c #339397",
"R  c #349097",
"E  c #37929A",
"W  c #32959A",
"Q  c #33979C",
"!  c #35979D",
"~  c #38929B",
"^  c #39939C",
"/  c #33999F",
"(  c #35989E",
")  c #339AA0",
"_  c #3799A0",
"`  c #359CA3",
"'  c #379CA4",
"]  c #389DA5",
"[  c #3A9EA8",
"{  c #3C9FA9",
"}  c #3CA0AA",
"|  c #3EA0AB",
" . c #3EA1AC",
/* pixels */
"; ; ; = & & * * ; * & & & & * ; ; * & & & & * * & & & & & & * ; ; ; ; ; ; ; ; ; ",
"; : , 3 3 2 2 , < 2 2 3 3 2 2 < < 2 2 3 3 2 2 2 3 3 3 3 3 2 2 2 < < < < , , , > ",
"; , 7 j l k u y y u k l l k u y y u k l l k u a l l l l l k u y y y y y t w 8 5 ",
"= 3 j S G F Z n n Z F T T F Z n n Z F T T F Z A G E ^ ~ R F Z n n n n n v d p t ",
"& 3 k G ! Q K H H H P _ _ / K H H H / ] ] ) P / ] { } { ] ) P H H H D Z m d a p ",
"= , g B Y Q ) U K H K U ) ) ) U K H / [ } ] ' ' [  . . .} ] ` U K H M m v p 0 8 ",
"; , 9 s N T _ _ P H H H K ) ' _ P K / ] { [ [ { } } } } } { ] _ K D m f p 0 < > ",
"; > 5 p x A T Q Q P H H H I _ _ / U / _ ' [ } } } } } } { [ ' Q J V f p 0 1 : ; ",
"; > 5 p d b B F Q _ U H H H P / _ _ ) U / ' {  .} } } } [ _ I J V v p 8 < > ; * ",
"; > 5 p s s d B T _ / K H H H P _ ' / K K / ] { } } } { ' I J V v a 0 1 : ; ; ; ",
"; > 5 p s a s x A T W / I H H H U / P H H K / ' [ { [ ` Q J V v s w 5 < : : ; ; ",
"; > 5 p a a p s z N J ( _ I H H H K H H H H K / ] [ ` P J V v s w 8 4 < < : : ; ",
"; > 5 t a a p p a d C T ( / K H H H H K K K K / _ _ Q J m v s e 8 4 1 < < > : : ",
"; > 4 r p p p i i a x C F W / U H H K U _ _ ) ) / P J V v s w 8 4 1 < 1 < < < > ",
"; > 4 w p p t t p p s d N T _ _ P K I _ ] [ ] _ P J V v s w 5 4 4 < < < < < < < ",
"; > 4 w p p p p p p a s b A T Q Q U / _ ' ' _ Q J V v s w 5 < < < 1 1 < < < < < ",
"; > 5 t a p p p a a s s d b B F Q _ ) U P P P J V v s w 5 < > > < < 4 < < < > : ",
"; > 5 t a a p p a s s s s s d B T _ / P H J D V v s w 5 < > : > < < < < < > : ; ",
"; > 5 t a a a a s s s s s a a x A T W / P J V v s w 5 < > > > > > > > > > : ; ; ",
"; > 4 w p a a s s s s s s a p s z N J ! ! A b a w 5 < > : > < , > : : : : ; ; ; ",
"; > 4 w p a a s s s s s s a p a s z C G G B s w 8 4 < > > < < < > : : ; ; ; ; ; ",
"; > 5 r a a a a s s s s s a a a s s z c c h 9 4 4 < < < < < < < < > : ; ; ; ; ; ",
"* > 5 p a a p a a s s s s s s s s a t q 6 2 , > < < < < < < < < < < > : ; ; ; ; ",
"; > 5 p s a a a a a a a s s s s a t 8 < : & % = : < < < < < < < < < > > : : ; ; ",
"; > 5 p s s a a a p p p a s s a e 8 < = # @ @ $ = : < < < < > : : : > , > : ; ; ",
"; > 5 p s s s a p p t p p a a t 8 < = # O o O @ $ ; > < < > : : ; : > < < > : : ",
"; > 5 p s s a p p t t t t t w 8 < = $ O X   X O @ $ ; > > > > : : : : > > > > > ",
"; > 5 p s a p p p t t t e 0 5 < = # O o X X X o O @ $ ; : > < > : ; ; : : > < < ",
"; > 8 p a a p t t t t w 0 5 < = $ O X X X X X X X O @ % ; > < , > : : : : > < < ",
"; > 8 p a a p t t t w 0 4 < = $ O o . X X X X X X o O @ $ ; : > > > > > > > > > ",
"; > 5 p a a p t t e 0 4 < = @ O o o X X X X X X X o o O @ $ ; : , < < < < > : : ",
"; > 5 t a a p p t 0 5 < = $ O X X X X X X X X X X X X X O @ $ ; > < < < < < > : ",
"; > 4 w p a a p 0 5 < = $ + o X X X X X X X X X X X X X o O @ $ ; : < < < < < < ",
"; > 4 w p a a t 8 < = # O o o X X X X X X X X X X X X X X o O @ $ ; : < < < < < ",
"; > 5 r p p e 8 < = $ O X . X X X X X X X X X X X X X X X X o O @ $ = > < < < 4 ",
"; > 5 t p e 8 < = # O o X X X X X X X X X X X X X X X X X X X o O @ $ ; : < < < ",
"; > 5 w t 8 < = $ O X X X X X X X X X X X X X X X X X X X X X X X O @ % ; > < < ",
"; : 1 8 8 1 = $ O o . X X X X X X X X X X X X X X X X X X X X X X o O @ $ = : > ",
"; : , 2 < - # O o o X X X X X X X X X X X X X X X X X X X X X X X o o O @ % ; : ",
"; : > < > & + X X X X X X X X X X X X X X X X X X X X X X X X X X X X X O $ & ; "
};
