/* XPM */
static char *edae5024bd514d44bdd50af6269c9460REE9olyME8YWj6EG_1[] = {
/* columns rows colors chars-per-pixel */
"24 24 8 1 ",
"  c None",
". c #323821",
"X c #C43F31",
"o c #88A043",
"O c #9FBC4D",
"+ c #D8B78F",
"@ c #FFD7A8",
"# c white",
/* pixels */
"                        ",
"                        ",
"                        ",
"                        ",
"         .........      ",
"      ...ooOOOOOOO.     ",
"     ..oooooOOoooO.     ",
"    .X.o#.#oO.OOO..     ",
"    .X.o#.#oOOOOOO.     ",
"    ...o###oOOOOOO.     ",
"     .X.ooooOOOOOO.     ",
"     .X.oooooOOO...     ",
"     ...oooOOO..        ",
"       ..ooOOOO.        ",
"        .o+@@@@.        ",
"      ..Oo+@@@@.        ",
"      .Ooo+@@@@.        ",
"      ..oooO++O.        ",
"        .oOOOOO.        ",
"        .oO..oO.        ",
"        ... ...         ",
"                        ",
"                        ",
"                        "
};
